#!OML:ASF E:\acrobat2\Project_11_07_03\Capture day 1\Session 1\Acrobat.ASF
:FULLY-SPECIFIED
:DEGREES
131
root 7.31179 18.1365 -19.1098 7.54351 0.375607 0.231345
lowerback 1.78843 -0.238952 4.46531
upperback 2.42694 -0.295439 0.731124
thorax 1.47351 -0.081869 -1.74924
lowerneck 9.44289 -12.5996 -7.08616
upperneck -8.55088 -17.1532 7.41468
head -2.80276 -8.68622 4.02493
rclavicle 2.68359e-015 -1.39149e-014
rhumerus -34.031 7.93858 -77.031
rradius 36.0315
rwrist 1.25153
rhand 5.62593 -43.3513
rfingers 7.12502
rthumb 30.9668 -70.7591
lclavicle 2.68359e-015 -1.39149e-014
lhumerus -32.7093 -2.80255 81.4082
lradius 34.315
lwrist 11.8388
lhand -6.6188 -17.2514
lfingers 7.12502
lthumb 19.2374 11.8171
rfemur 2.71695 7.99458 18.7324
rtibia -1.3028
rfoot -27.5808 -32.0213
rtoes 9.55442
lfemur -22.7098 5.06973 -10.8205
ltibia 21.7016
lfoot -10.1969 -0.011416
ltoes 16.4241
132
root 7.28827 18.143 -19.1487 7.44494 0.665647 0.319967
lowerback 1.87769 -0.297666 4.41992
upperback 2.4398 -0.370605 0.865067
thorax 1.43284 -0.121946 -1.58543
lowerneck 9.54259 -12.6502 -7.00911
upperneck -8.60657 -17.208 7.49382
head -2.83045 -8.72049 4.04813
rclavicle 3.08116e-015 -6.36111e-015
rhumerus -33.7678 7.43276 -76.5748
rradius 35.8726
rwrist 1.43781
rhand 5.39548 -43.4534
rfingers 7.12502
rthumb 30.7471 -70.9027
lclavicle 3.08116e-015 -6.36111e-015
lhumerus -32.7381 -3.2673 81.7705
lradius 34.1247
lwrist 11.4447
lhand -5.96617 -17.4747
lfingers 7.12502
lthumb 19.8649 11.5301
rfemur 2.76614 8.17707 18.7987
rtibia -1.3774
rfoot -27.8338 -32.3759
rtoes 10.1197
lfemur -23.0692 5.45144 -11.0041
ltibia 22.8383
lfoot -10.5396 -0.293726
ltoes 16.6799
133
root 7.26577 18.15 -19.1847 7.32736 0.913324 0.421214
lowerback 1.95124 -0.342847 4.36873
upperback 2.45983 -0.428671 0.97432
thorax 1.40968 -0.152886 -1.44383
lowerneck 9.62775 -12.6963 -6.94883
upperneck -8.63628 -17.2559 7.60152
head -2.8444 -8.75265 4.07895
rclavicle -2.98177e-015 0
rhumerus -33.5591 6.82482 -76.1247
rradius 35.7614
rwrist 1.57539
rhand 5.07274 -43.5114
rfingers 7.12502
rthumb 30.4394 -71.0183
lclavicle -2.98177e-015 0
lhumerus -32.7359 -3.71538 82.0817
lradius 33.8856
lwrist 11.0233
lhand -5.17306 -17.6207
lfingers 7.12502
lthumb 20.6271 11.3032
rfemur 2.84037 8.42739 18.8567
rtibia -1.44286
rfoot -28.1695 -32.7323
rtoes 10.7605
lfemur -23.3513 5.83135 -11.2002
ltibia 23.9712
lfoot -10.887 -0.536737
ltoes 16.9184
134
root 7.24479 18.1574 -19.2177 7.18896 1.11747 0.532813
lowerback 2.01115 -0.376241 4.31618
upperback 2.48607 -0.471865 1.06229
thorax 1.40157 -0.175861 -1.3235
lowerneck 9.70034 -12.7396 -6.90097
upperneck -8.64608 -17.3001 7.72205
head -2.84833 -8.78343 4.1129
rclavicle -9.93923e-016 -2.46493e-014
rhumerus -33.3881 6.1273 -75.6815
rradius 35.6702
rwrist 1.65736
rhand 4.69208 -43.5495
rfingers 7.12502
rthumb 30.0762 -71.1229
lclavicle -9.93923e-016 -2.46493e-014
lhumerus -32.714 -4.13233 82.3429
lradius 33.6123
lwrist 10.561
lhand -4.25144 -17.6926
lfingers 7.12502
lthumb 21.5125 11.1328
rfemur 2.93658 8.7018 18.8988
rtibia -1.48874
rfoot -28.5328 -33.0687
rtoes 11.3461
lfemur -23.5452 6.20792 -11.4054
ltibia 25.0723
lfoot -11.2263 -0.726151
ltoes 16.842
135
root 7.22558 18.1648 -19.2478 7.03373 1.28305 0.654585
lowerback 2.06902 -0.403848 4.25887
upperback 2.50707 -0.507234 1.13484
thorax 1.38973 -0.195018 -1.21636
lowerneck 9.75063 -12.7732 -6.86686
upperneck -8.61373 -17.3339 7.82475
head -2.83723 -8.80781 4.13958
rclavicle 2.98177e-015 -7.95139e-016
rhumerus -33.2492 5.36943 -75.2498
rradius 35.5751
rwrist 1.66828
rhand 4.24224 -43.5701
rfingers 7.12502
rthumb 29.6469 -71.2208
lclavicle 2.98177e-015 -7.95139e-016
lhumerus -32.6933 -4.51247 82.5609
lradius 33.3084
lwrist 10.0774
lhand -3.23876 -17.7289
lfingers 7.12502
lthumb 22.4848 10.9821
rfemur 3.04474 8.95297 18.9157
rtibia -1.5075
rfoot -28.8696 -33.3629
rtoes 11.7957
lfemur -23.6554 6.57734 -11.6191
ltibia 26.1339
lfoot -11.5518 -0.878664
ltoes 16.4311
136
root 7.20812 18.1721 -19.2747 6.87204 1.40497 0.798688
lowerback 2.11749 -0.426647 4.18663
upperback 2.51722 -0.536373 1.18702
thorax 1.37235 -0.211368 -1.12185
lowerneck 9.77328 -12.8008 -6.84288
upperneck -8.53295 -17.3631 7.89615
head -2.80953 -8.82788 4.15402
rclavicle -9.14409e-015 1.43125e-014
rhumerus -33.144 4.58298 -74.8432
rradius 35.4648
rwrist 1.5886
rhand 3.68911 -43.5601
rfingers 7.12502
rthumb 29.1188 -71.3033
lclavicle -9.14409e-015 1.43125e-014
lhumerus -32.6875 -4.85981 82.7355
lradius 32.9897
lwrist 9.61552
lhand -2.16955 -17.7105
lfingers 7.12502
lthumb 23.5108 10.8727
rfemur 3.14981 9.12969 18.8799
rtibia -1.49826
rfoot -29.1191 -33.5793
rtoes 12.0856
lfemur -23.6923 6.9348 -11.8545
ltibia 27.1497
lfoot -11.8588 -1.02335
ltoes 15.8251
137
root 7.19223 18.1788 -19.2986 6.71572 1.48043 0.972621
lowerback 2.14242 -0.442684 4.09374
upperback 2.51795 -0.557554 1.21457
thorax 1.35886 -0.223898 -1.04131
lowerneck 9.76816 -12.8192 -6.82976
upperneck -8.41181 -17.383 7.94272
head -2.76733 -8.84161 4.15852
rclavicle 3.18055e-015 1.59028e-015
rhumerus -33.0581 3.78846 -74.4687
rradius 35.3284
rwrist 1.42578
rhand 3.04462 -43.5531
rfingers 7.12502
rthumb 28.5032 -71.4012
lclavicle 3.18055e-015 1.59028e-015
lhumerus -32.7083 -5.1778 82.8684
lradius 32.6889
lwrist 9.21501
lhand -1.09191 -17.6042
lfingers 7.12502
lthumb 24.5441 10.8427
rfemur 3.24053 9.22541 18.7771
rtibia -1.46895
rfoot -29.2709 -33.7162
rtoes 12.2429
lfemur -23.6696 7.26568 -12.1166
ltibia 28.1166
lfoot -12.154 -1.18679
ltoes 15.1621
138
root 7.17763 18.1848 -19.3198 6.57314 1.52235 1.16367
lowerback 2.14252 -0.451907 3.98933
upperback 2.50946 -0.570709 1.22352
thorax 1.35016 -0.23246 -0.973645
lowerneck 9.73794 -12.8235 -6.826
upperneck -8.26777 -17.3861 7.97194
head -2.71636 -8.84556 4.15607
rclavicle 3.97569e-016 -9.54166e-015
rhumerus -32.9889 3.01096 -74.1277
rradius 35.1774
rwrist 1.18256
rhand 2.32826 -43.5555
rfingers 7.12502
rthumb 27.8185 -71.5163
lclavicle 3.97569e-016 -9.54166e-015
lhumerus -32.7571 -5.47945 82.9703
lradius 32.4173
lwrist 8.89675
lhand -0.0705021 -17.4105
lfingers 7.12502
lthumb 25.5228 10.9
rfemur 3.31228 9.27348 18.6288
rtibia -1.43248
rfoot -29.3614 -33.8068
rtoes 12.353
lfemur -23.6044 7.5514 -12.3859
ltibia 29.0344
lfoot -12.4283 -1.39848
ltoes 14.6363
139
root 7.16416 18.1901 -19.3388 6.44347 1.54864 1.35258
lowerback 2.11517 -0.456925 3.89798
upperback 2.50064 -0.57944 1.2171
thorax 1.35651 -0.23821 -0.929304
lowerneck 9.68765 -12.8164 -6.82856
upperneck -8.12678 -17.3737 8.0058
head -2.66336 -8.84155 4.15426
rclavicle 4.57205e-015 -6.36111e-015
rhumerus -32.9369 2.2731 -73.8264
rradius 35.0355
rwrist 0.838975
rhand 1.59746 -43.5524
rfingers 7.12502
rthumb 27.1196 -71.6242
lclavicle 4.57205e-015 -6.36111e-015
lhumerus -32.8078 -5.76567 83.0396
lradius 32.1565
lwrist 8.65515
lhand 0.875147 -17.1557
lfingers 7.12502
lthumb 26.4283 11.0219
rfemur 3.3715 9.2956 18.4676
rtibia -1.3972
rfoot -29.4235 -33.8729
rtoes 12.4763
lfemur -23.5014 7.77597 -12.6377
ltibia 29.8964
lfoot -12.647 -1.69
ltoes 14.3571
140
root 7.15171 18.1946 -19.3558 6.32093 1.57155 1.52486
lowerback 2.06542 -0.465126 3.83136
upperback 2.49638 -0.593342 1.20264
thorax 1.37969 -0.245753 -0.907177
lowerneck 9.61087 -12.8003 -6.84375
upperneck -7.98783 -17.3489 8.05002
head -2.60571 -8.83127 4.15498
rclavicle 9.34288e-015 -1.19271e-014
rhumerus -32.8893 1.60096 -73.5685
rradius 34.9145
rwrist 0.393213
rhand 0.935982 -43.5437
rfingers 7.12502
rthumb 26.4866 -71.7125
lclavicle 9.34288e-015 -1.19271e-014
lhumerus -32.8467 -6.00732 83.0712
lradius 31.89
lwrist 8.47401
lhand 1.75462 -16.8728
lfingers 7.12502
lthumb 27.2699 11.1755
rfemur 3.42823 9.3148 18.3207
rtibia -1.36387
rfoot -29.4947 -33.9287
rtoes 12.6757
lfemur -23.3615 7.92488 -12.8529
ltibia 30.7057
lfoot -12.7954 -2.06881
ltoes 14.2592
141
root 7.14026 18.1984 -19.371 6.20076 1.59248 1.67522
lowerback 2.00429 -0.478788 3.78589
upperback 2.49226 -0.614819 1.18752
thorax 1.40892 -0.256646 -0.897577
lowerneck 9.5077 -12.7807 -6.86834
upperneck -7.84905 -17.32 8.09056
head -2.54385 -8.81812 4.15389
rclavicle -4.17448e-015 -9.54166e-015
rhumerus -32.8471 1.02297 -73.3531
rradius 34.821
rwrist -0.131927
rhand 0.393968 -43.5351
rfingers 7.12502
rthumb 25.9677 -71.7811
lclavicle -4.17448e-015 -9.54166e-015
lhumerus -32.8782 -6.19967 83.0725
lradius 31.6113
lwrist 8.34124
lhand 2.54772 -16.5682
lfingers 7.12502
lthumb 28.0283 11.3585
rfemur 3.48875 9.34607 18.1998
rtibia -1.33123
rfoot -29.5914 -33.978
rtoes 12.9754
lfemur -23.1788 7.9949 -13.0263
ltibia 31.4492
lfoot -12.8771 -2.50592
ltoes 14.2116
